<?xml version="1.0" encoding="utf-8"?>
<!-- Generator: Adobe Illustrator 23.0.1, SVG Export Plug-In . SVG Version: 6.00 Build 0)  -->
<svg version="1.1" id="Layer_1" xmlns="http://www.w3.org/2000/svg" xmlns:xlink="http://www.w3.org/1999/xlink" x="0px" y="0px"
	 viewBox="0 0 115.0507 26.2207" enable-background="new 0 0 115.0507 26.2207" xml:space="preserve">
<path fill="#00A84D" d="M45.9917,6.9316c-0.0059,0-2.6661-0.0049-2.6661-0.0049l-2.2539,0.00979h-0.0009h-0.2559l0,0L37.0815,6.9424
	c-4.751,0-7.0615,1.9707-7.0615,6.0254v6.8252c0,4.14549,2.2949,6.4277,6.4634,6.4277h4.3315h0.5117h10.2627v-4.7012H51.3344
	H41.3266h-0.5117h-2.8726c-2.2793,0-2.5903-0.19629-3.0429-1.1055c0-0.0068-0.1084-0.4482-0.1084-0.4482s0-0.9414,0-1.0615
	c0.3891,0.001,4.5591,0.0068,6.0239,0.0107l0,0l11.082,0.0215l0.0069-7.34859C51.9038,8.6289,49.7485,6.9316,45.9917,6.9316z
	 M44.9492,11.5517c0.0332-0.0019,1.4033-0.0918,1.9927,0.5293c0.3383,0.3648,0.4106,1.084,0.4106,1.4971
	c0,0.0781-0.0024,0.1465-0.0068,0.1992c0,0,0,0.41019,0,0.6797c-0.3882,0-4.5547,0-6.0191,0c-0.3149,0-0.5117,0-0.5117,0
	c-1.4653,0-5.6352,0-6.0239,0c0-0.3203,0-0.9736,0-0.9736s0.0532-0.5029,0.0532-0.50391c0.002,0,0.1089-0.38189,0.1089-0.38379
	c0.001,0.0058,0.2226-0.3496,0.2226-0.3496c0.6685-0.8057,1.7632-0.6973,1.7735-0.6963l3.8657,0.0019l0,0H44.9492z"/>
<path fill="#00A84D" d="M24.2124,14.4316h-0.0005c-0.9497-0.5781-2.6304-0.958-3.9888-1.2246
	c-0.0146-0.0019-13.0278-1.7949-13.0278-1.7949c-1.6089-0.1963-2.2149-0.4165-2.2149-1.9707c0-1.4268,0.6304-2.0996,1.9868-2.1231
	c0.0044,0,0.4268-0.0156,0.4268-0.0156h17.4976v-4.854h-0.2559H6.5356c-1.5776,0-2.4219,0.2451-3.2173,0.5181
	c-0.3174,0.1084-3.105,1.1592-3.2973,4.54C0.021,7.51949,0,10.4043,0,10.4043c0.354,3.28319,2.3056,4.2969,4.3647,4.9053
	c0.021,0.0058,2.4316,0.4921,2.4316,0.4921c0.0132,0.002,3.793,0.5713,3.793,0.5713c3.6734,0.5528,8.7036,1.3096,8.8692,1.3399
	c1.0942,0.2383,1.8252,0.7734,2.0039,1.4677c0.0014,0.004,0.0864,0.5928,0.0864,0.5928c0,0.3594-0.0996,0.4844-0.3657,0.8155
	l-0.0786,0.09859c-0.4747,0.71781-1.6797,0.76171-2.0381,0.7578H0.395v4.7754h20.1636c1.6093,0,2.8242-0.3135,3.7168-0.958
	c1.6328-1.1553,2.4965-2.9678,2.4965-5.2393v-1.1826C26.7719,16.98049,25.8877,15.4551,24.2124,14.4316z"/>
<path fill="#00A84D" d="M80.3466,7.937L80.3466,7.937c-1.7378-1.0527-4.54729-0.9668-4.6669-0.9624H62.9521
	c-0.1099-0.0044-2.9199-0.0903-4.6577,0.9624c-1.5855,0.9658-2.4614,2.45849-2.4673,4.2007v14.083h5.0845V13.3164
	c0-1.0796,0.8965-1.957,1.9985-1.957h2.1192c1.0996,0,1.9941,0.8774,1.9941,1.957v12.9043h4.73V13.3164
	c0-1.0796,0.897-1.957,1.9995-1.957h2.1133c1.103,0,1.9995,0.8774,1.9995,1.957v12.9043h4.9541v-14.082
	C82.8095,10.39449,81.93159,8.9018,80.3466,7.937z"/>
<path fill="#00A84D" d="M113.47459,8.3906c-1.3164-1.2295-3.01659-1.4126-3.91309-1.4126h-7.69041
	c-0.8965,0-2.59569,0.1831-3.918,1.4126c-1.3955,1.293-1.5879,2.9795-1.5879,4.6094v13.2207h5.0478l0.0303-0.3076V14.5283
	c0-1.8501,0.1719-2.0205,0.628-2.4727c0.0927-0.0908,0.621-0.3769,1.3964-0.4365c0.001,0,3.128-0.0429,3.128-0.0429l1.2841,0.0107
	c0.8213,0,1.3858,0.3779,1.4834,0.4707c0.41121,0.4063,0.5801,0.6235,0.6094,1.8955l0.00591,0.249h5.0722v-1.3042
	C114.9804,11.4433,114.65041,9.4819,113.47459,8.3906z"/>
<polygon fill="#00A84D" points="87.1123,6.7446 87.1123,26.2207 92.2226,26.2207 92.2226,6.7446 91.9668,6.7446 "/>
<polygon fill="#00A84D" points="87.1123,0 87.1123,4.9326 92.2226,4.9326 92.2226,0 91.9668,0 "/>
</svg>
