<svg id="图层_1" data-name="图层 1" xmlns="http://www.w3.org/2000/svg" viewBox="0 0 481.077 81.712"><defs><style>.cls-1{fill:#fff;}</style></defs><title>logo-juicycouture</title><path class="cls-1" d="M141.876,61.992,132.7,57.958V28.969l9.081,5.041,4.77-6.933-11.96-6.738a39.924,39.924,0,0,1-11.078,7.733v26.2a15.708,15.708,0,0,1-.744,5.618,5.5,5.5,0,0,1-2.134,2.4v.9a53,53,0,0,1,7.579,2.031,58.114,58.114,0,0,1,7.455,3.546L146.9,60.469l-.327-1.933ZM164.337,31.5V30.485a10.837,10.837,0,0,0-1.168-5.473c-.779-1.328-2.476-2.879-5.084-4.673l-9.575,7.92,1.245,1.44c.278-.257.459-.439.591-.57a3.33,3.33,0,0,1,2-1.231,2.246,2.246,0,0,1,1.774,1.272c.688,1.1,1.036,3.172,1.036,6.2v21.8a18,18,0,0,1-.369,4.179,12.858,12.858,0,0,1-1.426,3.219,15.142,15.142,0,0,1-1.954,2.178c-2.176,2.141-3.267,4.317-3.267,6.578a7.584,7.584,0,0,0,2.837,5.9c1.891,1.669,4.583,2.489,8.093,2.489a14.79,14.79,0,0,0,8.345-2.176c1.419-.89,2.142-1.815,2.142-2.747A1.58,1.58,0,0,0,169,75.531a2.159,2.159,0,0,0-1.454-.473,2.255,2.255,0,0,0-1.418.431,6.406,6.406,0,0,0-1.412,1.843A4.747,4.747,0,0,1,163.03,79.2a10.016,10.016,0,0,1-4.52.9,9.081,9.081,0,0,1-6.092-1.969,5.687,5.687,0,0,1-2.3-4.29,4.746,4.746,0,0,1,.64-2.448,10.944,10.944,0,0,1,2.921-3.08c.639-.528,2.572-1.732,5.806-3.679a141.11,141.11,0,0,0,16.091-10.6,27.266,27.266,0,0,0,7.308-8.6,19.816,19.816,0,0,0,2.337-9.13c0-5.667-2.386-10.98-7.114-15.959ZM173.5,49.691q-2.733,5.047-9.158,9.645V33.753l6.981-5.654c3.262,3.922,4.895,7.913,4.895,12.017a20.122,20.122,0,0,1-2.718,9.575M116.746,4.853h-5.758l-2.336,9.736h1.975Zm-1.753,56.465a1.786,1.786,0,0,1-.911.236c-.472,0-.925-.389-1.356-1.175s-.661-2.5-.661-5.125V30.416L115.48,26.9l-8-6.565L99.466,26.9l3.421,3.512V55.831c0,3.824.348,6.5,1.064,8.039a13.884,13.884,0,0,0,4.784,4.888l9.812-7.921L117.379,59.4a21.9,21.9,0,0,1-2.386,1.92M27.28,42.355c.722,6.5,2.239,17.008,2.239,20.374a8.149,8.149,0,0,1-2.2,5.939,7.706,7.706,0,0,1-5.737,2.253A19.951,19.951,0,0,1,16,69.648a14.829,14.829,0,0,0-4.75-.89,10.6,10.6,0,0,0-8.178,3.351A16.309,16.309,0,0,0,0,78.75l1.711.807a5.666,5.666,0,0,1,1.641-2.546,5.664,5.664,0,0,1,3.275-.883,17.379,17.379,0,0,1,6.16,1.551,34.291,34.291,0,0,0,4.028,1.392,12.068,12.068,0,0,0,2.892.3q5.914,0,13.713-5.125,9.167-6.174,13.2-14.359,3.055-6.228,3.059-18.81c0-2.732-.014-5.361-.062-7.907Q49.5,25.941,49.5,23.121A24.871,24.871,0,0,1,51.673,12.7q2.181-4.776,8.094-11.2L58.05,0A23.724,23.724,0,0,1,51.8,3.33a22.63,22.63,0,0,1-7.148.981A62.063,62.063,0,0,1,32.328,2.622Q22.554.545,18.455.542A15.757,15.757,0,0,0,7.392,4.666Q2.875,8.8,2.879,13.719A7.951,7.951,0,0,0,4.7,19.178a5.473,5.473,0,0,0,4.213,2.058,4.085,4.085,0,0,0,3.04-1.216,4.185,4.185,0,0,0,1.189-3.032,3.691,3.691,0,0,0-1.092-2.733,3.5,3.5,0,0,0-2.615-1.112,3.837,3.837,0,0,0-1.655.444,3.66,3.66,0,0,1-1.376.453,1.074,1.074,0,0,1-.842-.376,1.347,1.347,0,0,1-.341-.967c0-1.286.744-2.559,2.219-3.8a9.062,9.062,0,0,1,6.049-1.87A28.027,28.027,0,0,1,21.9,8.914,30.761,30.761,0,0,0,31.848,10.8,37.214,37.214,0,0,0,42.661,8.748a59.715,59.715,0,0,0-10.187,7.94,19.734,19.734,0,0,0-4.3,6.405,26.238,26.238,0,0,0-1.342,8.289ZM43.593,16.912A40.673,40.673,0,0,0,40.5,33.28l.182,20.659a23.772,23.772,0,0,1-1.746,9.749,16.641,16.641,0,0,1-4.77,6.259,31.758,31.758,0,0,1-7.142,3.811c2.816-2.274,4.666-4.409,5.528-6.412q1.826-4.131,1.829-11.557L34.2,35.651q0-9.011,2.023-14.22a25.893,25.893,0,0,1,6.015-9.165,37.286,37.286,0,0,1,9.387-6.043Q45.711,12,43.593,16.912M95.1,61.2c-.591,0-1.141-.41-1.634-1.23-.779-1.176-1.176-3.137-1.176-5.9V30.234L95.9,26.9l-8.184-6.565L79.7,26.9l3.435,3.33V55.045L74.9,61.227a11.877,11.877,0,0,1-3.33-3.143,8.349,8.349,0,0,1-.682-3.9V30.234L74.3,26.9l-8.373-6.565L55.234,29.156l1.147,1.44q1.929-1.626,2.878-1.627a2.28,2.28,0,0,1,2.024,1.279,7.337,7.337,0,0,1,.418,3.1V55.8a14.945,14.945,0,0,0,1.355,6.87c.918,1.753,2.823,3.783,5.758,6.085A150.506,150.506,0,0,1,83.131,57.6a15.072,15.072,0,0,0,1.175,6.516,15.485,15.485,0,0,0,4.666,4.638l9.812-7.385-1.175-1.439A6.336,6.336,0,0,1,95.1,61.2M268.8,28.072v25.06a15.572,15.572,0,0,1-.633,5.244,7.239,7.239,0,0,1-2.156,2.643l.445.89a21.6,21.6,0,0,1,7.391,1.2,63.967,63.967,0,0,1,10.876,5.646,24.631,24.631,0,0,1,4.45-3.241,86.063,86.063,0,0,1,9.868-4.5V27.182a49.576,49.576,0,0,1-15.929-6.843A42.609,42.609,0,0,1,268.8,28.072m21.064,33.3-11.885-4.854V28.072a23.94,23.94,0,0,1,3.958,1.029c1.55.549,4.184,1.717,7.927,3.477ZM410.97,61.2c-.59,0-1.14-.41-1.634-1.23-.764-1.176-1.161-3.137-1.161-5.9V30.234l3.594-3.33-8.191-6.565-8,6.565L399,30.234V55.045l-8.227,6.182a11.79,11.79,0,0,1-3.33-3.143,8.442,8.442,0,0,1-.681-3.9V30.234l3.414-3.33-8.366-6.565-10.715,8.817,1.175,1.44c1.28-1.084,2.219-1.627,2.872-1.627a2.243,2.243,0,0,1,2,1.279,7.053,7.053,0,0,1,.431,3.1V55.8a14.862,14.862,0,0,0,1.363,6.87q1.357,2.63,5.758,6.085A149.783,149.783,0,0,1,399,57.6a15.024,15.024,0,0,0,1.189,6.516,15.331,15.331,0,0,0,4.66,4.638l9.81-7.385-1.175-1.439a6.374,6.374,0,0,1-2.51,1.265m23.913-33.621,5.675,6.982,6.926-6.036-6.926-8.185-10.174,8.817a6.5,6.5,0,0,0-.931-3.734,23.033,23.033,0,0,0-5.277-5.083l-9.457,8.276,1.174,1.438c1.189-1.438,2.114-2.155,2.817-2.155a2.116,2.116,0,0,1,1.7,1.182c.522.779.8,2.351.8,4.715v18.8a16.171,16.171,0,0,1-.628,5.549,7.25,7.25,0,0,1-2.619,2.879v.89a23.859,23.859,0,0,1,5.533,2.211,41.04,41.04,0,0,1,6.26,4.638l11.793-9.36-1.086-1.44-4.68,3.776-5.4-3.776V31.479Zm46.194,7.594L468.3,20.339c-5.117,2.608-8.344,4.236-9.735,4.882-1.9.862-4.305,1.822-7.2,2.851V54.2a20.973,20.973,0,0,1-.494,5.821,4.562,4.562,0,0,1-2.016,2.267v.9a62.319,62.319,0,0,1,8.212,2.121,57.943,57.943,0,0,1,7.358,3.456l14.845-10.43-1.07-1.447-7.121,5.028-10.521-3.951V49.5Zm-20.52-9.325.639-.222,11.446,12.391-12.085,8.455ZM360.326,9.714H359.02L346.474,25.36v2h4.311v26.2a11.842,11.842,0,0,1-.792,4.889,6.5,6.5,0,0,1-2.447,2.573v.89a26.978,26.978,0,0,1,11.8,6.849l9.632-7.921-1.1-1.439L365,61.734l-5.036-3.97v-30.4h9.18V22.314h-9.18ZM341.2,61.2c-.584,0-1.139-.41-1.619-1.23-.787-1.176-1.169-3.137-1.169-5.9V30.234L342,26.9l-8.177-6.565L325.808,26.9l3.421,3.33V55.045l-8.218,6.182a11.743,11.743,0,0,1-3.339-3.143,8.379,8.379,0,0,1-.68-3.9V30.234l3.419-3.33-8.363-6.565L301.33,29.156,302.5,30.6c1.28-1.084,2.241-1.627,2.872-1.627a2.271,2.271,0,0,1,2.017,1.279,7.194,7.194,0,0,1,.424,3.1V55.8a14.868,14.868,0,0,0,1.356,6.87c.9,1.753,2.83,3.783,5.751,6.085A153.286,153.286,0,0,1,329.229,57.6c.07,2.969.453,5.152,1.189,6.516a15.569,15.569,0,0,0,4.666,4.638l9.805-7.385-1.175-1.439A6.239,6.239,0,0,1,341.2,61.2m-88.867-2.607a30.649,30.649,0,0,1-11.9,2.245l-1.711-.048L238.177,9.15q9.431,4.634,16.913,5.439l7.572-6.94-.814-1.7h-1.036a43.378,43.378,0,0,1-9.068-.834,66.979,66.979,0,0,1-10.6-3.672L221.607,17.46V37.848c0,4.562-.173,7.337-.528,8.359a10.332,10.332,0,0,1-3.254,3.755A28.2,28.2,0,0,1,211.531,32.3a26.5,26.5,0,0,1,4.291-14.59,34.742,34.742,0,0,1,10.11-9.79l-1.168-1.265q-10.305,6.216-14.915,12.787a31.108,31.108,0,0,0-5.87,18.226,31.5,31.5,0,0,0,4.173,15.492A28.582,28.582,0,0,0,219.7,64.717a32.164,32.164,0,0,0,15.723,4.041,35.42,35.42,0,0,0,11.333-1.926,32.14,32.14,0,0,0,9.792-5.153,46.43,46.43,0,0,0,8.269-9.026l-1.35-1.363a41.286,41.286,0,0,1-11.126,7.3M226.815,57.6a27.351,27.351,0,0,1-7.788-6.16,76.538,76.538,0,0,0,9.27-8.77,9.317,9.317,0,0,0,2.086-3.573,20.291,20.291,0,0,0,.41-5.112V13.365l5.217-4.291.547,51.4a29.036,29.036,0,0,1-9.742-2.865"/></svg>